<mxfile host="app.diagrams.net" modified="2021-03-26T08:13:59.904Z" agent="5.0 (Windows NT 6.3; Win64; x64) AppleWebKit/537.36 (KHTML, like Gecko) Chrome/89.0.4389.90 Safari/537.36" etag="JyiqBYO0-FkWhBlEITQK" version="14.4.9" type="github">
  <diagram name="Page-1" id="c7558073-3199-34d8-9f00-42111426c3f3">
    <mxGraphModel dx="868" dy="450" grid="1" gridSize="10" guides="1" tooltips="1" connect="1" arrows="1" fold="1" page="1" pageScale="1" pageWidth="826" pageHeight="1169" math="0" shadow="0">
      <root>
        <mxCell id="0" />
        <mxCell id="1" parent="0" />
        <mxCell id="gAqNCkSHuWYAYPaQFiKm-97" value="Main Page" style="whiteSpace=wrap;html=1;fillColor=#e3c800;strokeColor=#B09500;fontColor=#ffffff;rounded=1;" parent="1" vertex="1">
          <mxGeometry x="30" y="46" width="120" height="50" as="geometry" />
        </mxCell>
        <mxCell id="gAqNCkSHuWYAYPaQFiKm-116" style="edgeStyle=orthogonalEdgeStyle;orthogonalLoop=1;jettySize=auto;html=1;exitX=1;exitY=0.5;exitDx=0;exitDy=0;entryX=0;entryY=0.5;entryDx=0;entryDy=0;fillColor=#FFE45E;strokeColor=#FF6392;fontColor=#5AA9E6;" parent="1" source="gAqNCkSHuWYAYPaQFiKm-98" target="gAqNCkSHuWYAYPaQFiKm-100" edge="1">
          <mxGeometry relative="1" as="geometry" />
        </mxCell>
        <mxCell id="gAqNCkSHuWYAYPaQFiKm-98" value="viewReview,&lt;br&gt;viewShow,&lt;br&gt;myInfo 등&lt;br&gt;메뉴 클릭" style="whiteSpace=wrap;html=1;fillColor=#FFE45E;strokeColor=#FF6392;fontColor=#5AA9E6;rounded=1;" parent="1" vertex="1">
          <mxGeometry x="240" y="30" width="120" height="80" as="geometry" />
        </mxCell>
        <mxCell id="gAqNCkSHuWYAYPaQFiKm-119" style="edgeStyle=orthogonalEdgeStyle;orthogonalLoop=1;jettySize=auto;html=1;exitX=1;exitY=0.5;exitDx=0;exitDy=0;entryX=0.5;entryY=0;entryDx=0;entryDy=0;fillColor=#FFE45E;strokeColor=#FF6392;fontColor=#5AA9E6;" parent="1" source="gAqNCkSHuWYAYPaQFiKm-100" target="gAqNCkSHuWYAYPaQFiKm-107" edge="1">
          <mxGeometry relative="1" as="geometry" />
        </mxCell>
        <mxCell id="rou8ZzaRof6glPFGPmsq-6" style="edgeStyle=orthogonalEdgeStyle;curved=0;rounded=1;sketch=0;orthogonalLoop=1;jettySize=auto;html=1;entryX=1;entryY=0.588;entryDx=0;entryDy=0;entryPerimeter=0;strokeColor=#FF6392;fillColor=#FFE45E;fontColor=#5AA9E6;" edge="1" parent="1" source="gAqNCkSHuWYAYPaQFiKm-100" target="rou8ZzaRof6glPFGPmsq-5">
          <mxGeometry relative="1" as="geometry">
            <Array as="points">
              <mxPoint x="530" y="207" />
            </Array>
          </mxGeometry>
        </mxCell>
        <mxCell id="gAqNCkSHuWYAYPaQFiKm-100" value="로그인 했는가?" style="rhombus;whiteSpace=wrap;html=1;fillColor=#f0a30a;strokeColor=#BD7000;rounded=1;fontColor=#ffffff;" parent="1" vertex="1">
          <mxGeometry x="430" y="30" width="200" height="50" as="geometry" />
        </mxCell>
        <mxCell id="gAqNCkSHuWYAYPaQFiKm-101" value="" style="endArrow=classic;html=1;exitX=1;exitY=0.5;exitDx=0;exitDy=0;entryX=0;entryY=0.5;entryDx=0;entryDy=0;fillColor=#FFE45E;strokeColor=#FF6392;fontColor=#5AA9E6;" parent="1" source="gAqNCkSHuWYAYPaQFiKm-97" target="gAqNCkSHuWYAYPaQFiKm-98" edge="1">
          <mxGeometry width="50" height="50" relative="1" as="geometry">
            <mxPoint x="400" y="210" as="sourcePoint" />
            <mxPoint x="450" y="160" as="targetPoint" />
          </mxGeometry>
        </mxCell>
        <mxCell id="gAqNCkSHuWYAYPaQFiKm-112" style="edgeStyle=orthogonalEdgeStyle;orthogonalLoop=1;jettySize=auto;html=1;exitX=0;exitY=1;exitDx=0;exitDy=0;fillColor=#FFE45E;strokeColor=#FF6392;fontColor=#5AA9E6;" parent="1" source="gAqNCkSHuWYAYPaQFiKm-107" target="gAqNCkSHuWYAYPaQFiKm-108" edge="1">
          <mxGeometry relative="1" as="geometry" />
        </mxCell>
        <mxCell id="gAqNCkSHuWYAYPaQFiKm-113" style="edgeStyle=orthogonalEdgeStyle;orthogonalLoop=1;jettySize=auto;html=1;exitX=1;exitY=1;exitDx=0;exitDy=0;entryX=0.5;entryY=0;entryDx=0;entryDy=0;fillColor=#FFE45E;strokeColor=#FF6392;fontColor=#5AA9E6;" parent="1" source="gAqNCkSHuWYAYPaQFiKm-107" target="gAqNCkSHuWYAYPaQFiKm-109" edge="1">
          <mxGeometry relative="1" as="geometry" />
        </mxCell>
        <mxCell id="gAqNCkSHuWYAYPaQFiKm-107" value="회원인가?" style="rhombus;whiteSpace=wrap;html=1;fillColor=#f0a30a;strokeColor=#BD7000;rounded=1;fontColor=#ffffff;" parent="1" vertex="1">
          <mxGeometry x="500" y="230" width="220" height="50" as="geometry" />
        </mxCell>
        <mxCell id="gAqNCkSHuWYAYPaQFiKm-114" style="edgeStyle=orthogonalEdgeStyle;orthogonalLoop=1;jettySize=auto;html=1;exitX=0.5;exitY=1;exitDx=0;exitDy=0;entryX=0.5;entryY=0;entryDx=0;entryDy=0;fillColor=#FFE45E;strokeColor=#FF6392;fontColor=#5AA9E6;" parent="1" source="gAqNCkSHuWYAYPaQFiKm-108" target="gAqNCkSHuWYAYPaQFiKm-110" edge="1">
          <mxGeometry relative="1" as="geometry" />
        </mxCell>
        <mxCell id="gAqNCkSHuWYAYPaQFiKm-108" value="회원가입 페이지" style="whiteSpace=wrap;html=1;fillColor=#FFE45E;strokeColor=#FF6392;fontColor=#5AA9E6;rounded=1;" parent="1" vertex="1">
          <mxGeometry x="410" y="320" width="160" height="40" as="geometry" />
        </mxCell>
        <mxCell id="gAqNCkSHuWYAYPaQFiKm-115" style="edgeStyle=orthogonalEdgeStyle;orthogonalLoop=1;jettySize=auto;html=1;exitX=0.5;exitY=1;exitDx=0;exitDy=0;entryX=0.5;entryY=0;entryDx=0;entryDy=0;fillColor=#FFE45E;strokeColor=#FF6392;fontColor=#5AA9E6;" parent="1" source="gAqNCkSHuWYAYPaQFiKm-109" target="gAqNCkSHuWYAYPaQFiKm-111" edge="1">
          <mxGeometry relative="1" as="geometry" />
        </mxCell>
        <mxCell id="gAqNCkSHuWYAYPaQFiKm-109" value="로그인 페이지" style="whiteSpace=wrap;html=1;fillColor=#FFE45E;strokeColor=#FF6392;fontColor=#5AA9E6;rounded=1;" parent="1" vertex="1">
          <mxGeometry x="640" y="320" width="160" height="40" as="geometry" />
        </mxCell>
        <mxCell id="gAqNCkSHuWYAYPaQFiKm-121" style="edgeStyle=orthogonalEdgeStyle;orthogonalLoop=1;jettySize=auto;html=1;exitX=0.5;exitY=1;exitDx=0;exitDy=0;entryX=0.5;entryY=1;entryDx=0;entryDy=0;fillColor=#FFE45E;strokeColor=#FF6392;fontColor=#5AA9E6;" parent="1" source="gAqNCkSHuWYAYPaQFiKm-110" target="gAqNCkSHuWYAYPaQFiKm-97" edge="1">
          <mxGeometry relative="1" as="geometry" />
        </mxCell>
        <mxCell id="gAqNCkSHuWYAYPaQFiKm-110" value="정보 입력" style="whiteSpace=wrap;html=1;fillColor=#FFE45E;strokeColor=#FF6392;fontColor=#5AA9E6;rounded=1;" parent="1" vertex="1">
          <mxGeometry x="410" y="400" width="160" height="40" as="geometry" />
        </mxCell>
        <mxCell id="gAqNCkSHuWYAYPaQFiKm-122" style="edgeStyle=orthogonalEdgeStyle;orthogonalLoop=1;jettySize=auto;html=1;exitX=0.5;exitY=1;exitDx=0;exitDy=0;fillColor=#FFE45E;strokeColor=#FF6392;fontColor=#5AA9E6;" parent="1" source="gAqNCkSHuWYAYPaQFiKm-111" edge="1">
          <mxGeometry relative="1" as="geometry">
            <mxPoint x="90" y="100" as="targetPoint" />
            <Array as="points">
              <mxPoint x="720" y="480" />
              <mxPoint x="90" y="480" />
            </Array>
          </mxGeometry>
        </mxCell>
        <mxCell id="gAqNCkSHuWYAYPaQFiKm-111" value="정보 입력" style="whiteSpace=wrap;html=1;fillColor=#FFE45E;strokeColor=#FF6392;fontColor=#5AA9E6;rounded=1;" parent="1" vertex="1">
          <mxGeometry x="640" y="400" width="160" height="40" as="geometry" />
        </mxCell>
        <mxCell id="rou8ZzaRof6glPFGPmsq-1" value="Yes" style="text;html=1;strokeColor=none;fillColor=none;align=center;verticalAlign=middle;whiteSpace=wrap;rounded=0;sketch=0;fontColor=#5AA9E6;" vertex="1" parent="1">
          <mxGeometry x="530" y="80" width="40" height="20" as="geometry" />
        </mxCell>
        <mxCell id="rou8ZzaRof6glPFGPmsq-2" value="No" style="text;html=1;strokeColor=none;fillColor=none;align=center;verticalAlign=middle;whiteSpace=wrap;rounded=0;sketch=0;fontColor=#5AA9E6;" vertex="1" parent="1">
          <mxGeometry x="630" y="30" width="40" height="20" as="geometry" />
        </mxCell>
        <mxCell id="rou8ZzaRof6glPFGPmsq-3" value="No" style="text;html=1;strokeColor=none;fillColor=none;align=center;verticalAlign=middle;whiteSpace=wrap;rounded=0;sketch=0;fontColor=#5AA9E6;" vertex="1" parent="1">
          <mxGeometry x="490" y="280" width="40" height="20" as="geometry" />
        </mxCell>
        <mxCell id="rou8ZzaRof6glPFGPmsq-4" value="Yes" style="text;html=1;strokeColor=none;fillColor=none;align=center;verticalAlign=middle;whiteSpace=wrap;rounded=0;sketch=0;fontColor=#5AA9E6;" vertex="1" parent="1">
          <mxGeometry x="680" y="280" width="40" height="20" as="geometry" />
        </mxCell>
        <mxCell id="rou8ZzaRof6glPFGPmsq-5" value="선택한 페이지&lt;br&gt;이동" style="whiteSpace=wrap;html=1;fillColor=#FFE45E;strokeColor=#FF6392;fontColor=#5AA9E6;rounded=1;" vertex="1" parent="1">
          <mxGeometry x="240" y="160" width="120" height="80" as="geometry" />
        </mxCell>
      </root>
    </mxGraphModel>
  </diagram>
</mxfile>
